<svg width="152" height="47" viewBox="0 0 152 47" fill="none" xmlns="http://www.w3.org/2000/svg">
<path d="M17.056 3.34399C19.168 3.34399 20.896 3.66399 22.24 4.30399C23.616 4.91199 24.832 5.63199 25.888 6.46399C26.528 6.94399 27.008 7.00799 27.328 6.65599C27.68 6.27199 27.92 5.39199 28.048 4.01599H29.152C29.088 5.26399 29.04 6.78399 29.008 8.57599C28.976 10.336 28.96 12.688 28.96 15.632H27.856C27.696 14.16 27.488 12.912 27.232 11.888C26.976 10.832 26.624 9.90399 26.176 9.10399C25.728 8.30399 25.088 7.58399 24.256 6.94399C23.456 6.14399 22.528 5.55199 21.472 5.16799C20.416 4.78399 19.312 4.59199 18.16 4.59199C16.432 4.59199 14.96 5.05599 13.744 5.98399C12.528 6.87999 11.536 8.11199 10.768 9.67999C10.032 11.248 9.48797 13.024 9.13597 15.008C8.78397 16.96 8.60797 18.992 8.60797 21.104C8.60797 23.248 8.78397 25.312 9.13597 27.296C9.51997 29.248 10.096 30.992 10.864 32.528C11.664 34.064 12.688 35.28 13.936 36.176C15.184 37.072 16.656 37.52 18.352 37.52C19.408 37.52 20.464 37.328 21.52 36.944C22.608 36.528 23.536 35.936 24.304 35.168C25.552 34.208 26.4 33.024 26.848 31.616C27.296 30.176 27.632 28.272 27.856 25.904H28.96C28.96 28.944 28.976 31.408 29.008 33.296C29.04 35.152 29.088 36.72 29.152 38H28.048C27.92 36.624 27.696 35.76 27.376 35.408C27.088 35.056 26.592 35.104 25.888 35.552C24.704 36.384 23.44 37.12 22.096 37.76C20.784 38.368 19.088 38.672 17.008 38.672C13.616 38.672 10.64 37.984 8.07997 36.608C5.55197 35.232 3.58397 33.248 2.17597 30.656C0.767965 28.064 0.0639648 24.944 0.0639648 21.296C0.0639648 17.712 0.783965 14.576 2.22397 11.888C3.69597 9.19999 5.69597 7.10399 8.22397 5.59999C10.784 4.09599 13.728 3.34399 17.056 3.34399Z" fill="#141414"/>
<path d="M39.6197 38.336C38.1797 38.336 36.9797 38.064 36.0197 37.52C35.0597 36.976 34.3557 36.256 33.9077 35.36C33.4597 34.432 33.2357 33.424 33.2357 32.336C33.2357 30.96 33.5397 29.84 34.1477 28.976C34.7877 28.112 35.6037 27.408 36.5957 26.864C37.5877 26.32 38.6277 25.872 39.7157 25.52C40.8357 25.168 41.8917 24.832 42.8837 24.512C43.9077 24.16 44.7237 23.76 45.3317 23.312C45.9717 22.832 46.2917 22.224 46.2917 21.488V17.744C46.2917 16.912 46.1477 16.176 45.8597 15.536C45.6037 14.864 45.1877 14.352 44.6117 14C44.0677 13.648 43.3477 13.472 42.4517 13.472C41.8117 13.472 41.1717 13.568 40.5317 13.76C39.8917 13.92 39.3637 14.208 38.9477 14.624C39.8437 14.944 40.5317 15.44 41.0117 16.112C41.5237 16.752 41.7797 17.488 41.7797 18.32C41.7797 19.408 41.3957 20.272 40.6277 20.912C39.8917 21.552 39.0117 21.872 37.9877 21.872C36.8357 21.872 35.9557 21.52 35.3477 20.816C34.7717 20.08 34.4837 19.2 34.4837 18.176C34.4837 17.248 34.7077 16.48 35.1557 15.872C35.6357 15.264 36.2917 14.688 37.1237 14.144C38.0197 13.632 39.0917 13.232 40.3397 12.944C41.6197 12.656 42.9957 12.512 44.4677 12.512C45.9397 12.512 47.2677 12.672 48.4517 12.992C49.6357 13.28 50.6277 13.824 51.4277 14.624C52.1637 15.36 52.6437 16.272 52.8677 17.36C53.0917 18.416 53.2037 19.76 53.2037 21.392V34.448C53.2037 35.248 53.2837 35.808 53.4437 36.128C53.6037 36.416 53.8757 36.56 54.2597 36.56C54.5477 36.56 54.8197 36.48 55.0757 36.32C55.3637 36.16 55.6677 35.968 55.9877 35.744L56.4677 36.56C55.7957 37.136 55.0117 37.584 54.1157 37.904C53.2517 38.192 52.2757 38.336 51.1877 38.336C50.0037 38.336 49.0597 38.176 48.3557 37.856C47.6517 37.504 47.1397 37.04 46.8197 36.464C46.5317 35.888 46.3877 35.216 46.3877 34.448C45.6197 35.664 44.6917 36.624 43.6037 37.328C42.5157 38 41.1877 38.336 39.6197 38.336ZM43.0277 35.264C43.6677 35.264 44.2437 35.12 44.7557 34.832C45.2997 34.512 45.8117 34 46.2917 33.296V23.456C46.0037 23.936 45.6037 24.368 45.0917 24.752C44.5797 25.136 44.0357 25.536 43.4597 25.952C42.8837 26.336 42.3237 26.768 41.7797 27.248C41.2677 27.728 40.8517 28.32 40.5317 29.024C40.2117 29.728 40.0517 30.576 40.0517 31.568C40.0517 32.816 40.3237 33.744 40.8677 34.352C41.4117 34.96 42.1317 35.264 43.0277 35.264Z" fill="#141414"/>
<path d="M64.0795 0.799988C65.4235 0.799988 66.4795 1.13599 67.2475 1.80799C68.0475 2.44799 68.4475 3.34399 68.4475 4.49599C68.4475 5.64799 68.0475 6.55999 67.2475 7.23199C66.4795 7.87199 65.4235 8.19199 64.0795 8.19199C62.7355 8.19199 61.6635 7.87199 60.8635 7.23199C60.0955 6.55999 59.7115 5.64799 59.7115 4.49599C59.7115 3.34399 60.0955 2.44799 60.8635 1.80799C61.6635 1.13599 62.7355 0.799988 64.0795 0.799988ZM67.8235 12.656V33.536C67.8235 34.88 68.0475 35.792 68.4955 36.272C68.9755 36.752 69.7755 36.992 70.8955 36.992V38C70.3195 37.968 69.4235 37.936 68.2075 37.904C66.9915 37.84 65.7595 37.808 64.5115 37.808C63.2635 37.808 61.9995 37.84 60.7195 37.904C59.4395 37.936 58.4795 37.968 57.8395 38V36.992C58.9595 36.992 59.7435 36.752 60.1915 36.272C60.6715 35.792 60.9115 34.88 60.9115 33.536V18.416C60.9115 16.976 60.6875 15.92 60.2395 15.248C59.8235 14.544 59.0235 14.192 57.8395 14.192V13.184C58.8635 13.28 59.8555 13.328 60.8155 13.328C62.1595 13.328 63.4075 13.28 64.5595 13.184C65.7435 13.056 66.8315 12.88 67.8235 12.656Z" fill="#141414"/>
<path d="M84.1161 12.512C85.6201 12.512 86.9161 12.72 88.0041 13.136C89.0921 13.52 90.0361 14.256 90.8361 15.344L90.1161 15.584C89.6361 14.848 89.0281 14.32 88.2921 14C87.5561 13.68 86.7721 13.52 85.9401 13.52C84.2761 13.52 83.0121 14.512 82.1481 16.496C81.2841 18.48 80.8521 21.504 80.8521 25.568C80.8521 28.288 81.0441 30.464 81.4281 32.096C81.8121 33.696 82.3401 34.848 83.0121 35.552C83.7161 36.256 84.5321 36.608 85.4601 36.608C86.5161 36.608 87.4761 36.144 88.3401 35.216C89.2361 34.288 89.7161 33.024 89.7801 31.424L90.0201 33.104C89.5401 34.928 88.7401 36.32 87.6201 37.28C86.5001 38.208 85.1081 38.672 83.4441 38.672C81.6201 38.672 79.9561 38.208 78.4521 37.28C76.9801 36.352 75.7961 34.928 74.9001 33.008C74.0361 31.056 73.6041 28.544 73.6041 25.472C73.6041 22.56 74.0521 20.16 74.9481 18.272C75.8441 16.352 77.0761 14.912 78.6441 13.952C80.2441 12.992 82.0681 12.512 84.1161 12.512ZM96.1641 12.416L96.8841 12.8C96.7561 13.216 96.6601 13.664 96.5961 14.144C96.5641 14.592 96.5481 15.056 96.5481 15.536V42.416C96.5481 43.696 96.7561 44.56 97.1721 45.008C97.6201 45.456 98.3721 45.68 99.4281 45.68V46.688C98.8521 46.656 98.0041 46.608 96.8841 46.544C95.7641 46.512 94.5961 46.496 93.3801 46.496C91.7801 46.496 90.2441 46.512 88.7721 46.544C87.3001 46.608 86.1481 46.656 85.3161 46.688V45.68C86.6921 45.68 87.7481 45.424 88.4841 44.912C89.2521 44.432 89.6361 43.44 89.6361 41.936V14.432C90.4681 14.496 91.3001 14.448 92.1321 14.288C92.9641 14.128 93.7321 13.888 94.4361 13.568C95.1721 13.216 95.7481 12.832 96.1641 12.416Z" fill="#141414"/>
<path d="M124.962 12.656V32.768C124.962 34.208 125.186 35.28 125.634 35.984C126.082 36.656 126.882 36.992 128.034 36.992V38C127.042 37.904 126.05 37.856 125.058 37.856C123.714 37.856 122.466 37.904 121.314 38C120.162 38.096 119.074 38.272 118.05 38.528V34.208C117.282 35.808 116.21 36.96 114.834 37.664C113.49 38.336 111.986 38.672 110.322 38.672C108.978 38.672 107.89 38.496 107.058 38.144C106.226 37.792 105.57 37.344 105.09 36.8C104.546 36.192 104.162 35.392 103.938 34.4C103.714 33.408 103.602 32.128 103.602 30.56V18.416C103.602 16.976 103.378 15.92 102.93 15.248C102.514 14.544 101.714 14.192 100.53 14.192V13.184C101.554 13.28 102.546 13.328 103.506 13.328C104.85 13.328 106.098 13.28 107.25 13.184C108.434 13.056 109.522 12.88 110.514 12.656V32.528C110.514 33.328 110.578 34.032 110.706 34.64C110.866 35.248 111.154 35.728 111.57 36.08C111.986 36.4 112.594 36.56 113.394 36.56C114.258 36.56 115.026 36.32 115.698 35.84C116.402 35.36 116.962 34.704 117.378 33.872C117.826 33.008 118.05 32.048 118.05 30.992V18.416C118.05 16.976 117.826 15.92 117.378 15.248C116.962 14.544 116.162 14.192 114.978 14.192V13.184C116.002 13.28 116.994 13.328 117.954 13.328C119.298 13.328 120.546 13.28 121.698 13.184C122.882 13.056 123.97 12.88 124.962 12.656Z" fill="#141414"/>
<path d="M142.552 12.512C145.368 12.512 147.576 13.344 149.176 15.008C150.776 16.672 151.576 19.392 151.576 23.168H135.784L135.688 22.256H145.528C145.56 20.688 145.464 19.248 145.24 17.936C145.016 16.592 144.664 15.52 144.184 14.72C143.704 13.92 143.064 13.52 142.264 13.52C141.144 13.52 140.184 14.224 139.384 15.632C138.616 17.04 138.152 19.376 137.992 22.64L138.136 22.928C138.104 23.312 138.072 23.712 138.04 24.128C138.04 24.544 138.04 24.976 138.04 25.424C138.04 27.632 138.344 29.424 138.952 30.8C139.592 32.176 140.392 33.184 141.352 33.824C142.312 34.432 143.288 34.736 144.28 34.736C144.952 34.736 145.64 34.64 146.344 34.448C147.08 34.224 147.816 33.84 148.552 33.296C149.288 32.72 149.976 31.92 150.616 30.896L151.48 31.184C151.096 32.4 150.488 33.584 149.656 34.736C148.824 35.888 147.768 36.832 146.488 37.568C145.208 38.304 143.672 38.672 141.88 38.672C139.704 38.672 137.784 38.208 136.12 37.28C134.456 36.352 133.144 34.944 132.184 33.056C131.256 31.168 130.792 28.768 130.792 25.856C130.792 22.88 131.288 20.4 132.28 18.416C133.304 16.432 134.696 14.96 136.456 14C138.248 13.008 140.28 12.512 142.552 12.512Z" fill="#141414"/>
</svg>
